<?xml version="1.0" standalone="no"?>
<!DOCTYPE svg PUBLIC "-//W3C//DTD SVG 20010904//EN"
 "http://www.w3.org/TR/2001/REC-SVG-20010904/DTD/svg10.dtd">
<svg version="1.0" xmlns="http://www.w3.org/2000/svg"
 width="300.000000pt" height="200.000000pt" viewBox="0 0 300.000000 200.000000"
 preserveAspectRatio="xMidYMid meet">

<g transform="translate(0.000000,200.000000) scale(0.100000,-0.100000)"
fill="#000000" stroke="none">
<path d="M2458 1843 c6 -2 18 -2 25 0 6 3 1 5 -13 5 -14 0 -19 -2 -12 -5z"/>
<path d="M545 1820 c-96 -31 -153 -88 -168 -167 l-6 -33 47 0 c46 0 49 2 61
35 18 51 68 84 143 97 136 22 248 -32 248 -119 0 -68 -43 -93 -222 -131 -186
-40 -265 -87 -288 -172 -30 -113 27 -212 155 -266 63 -26 232 -22 310 7 57 21
124 74 138 109 5 12 8 11 18 -5 26 -42 81 -84 136 -105 77 -29 234 -32 310 -6
64 21 138 89 148 135 11 53 19 26 16 -55 l-2 -76 218 4 c203 3 222 5 271 27
68 31 107 76 122 143 21 94 -25 191 -106 220 -40 14 -43 24 -9 40 44 20 78 81
78 141 0 63 -21 107 -68 142 -60 46 -111 55 -317 55 l-189 0 1 -252 c1 -139 1
-257 0 -263 0 -5 -9 9 -19 32 -30 66 -119 113 -267 143 -90 18 -166 42 -196
62 -52 36 -44 122 14 160 56 37 167 44 255 17 37 -12 93 -71 93 -99 0 -17 7
-20 50 -20 41 0 50 3 50 18 -1 35 -38 99 -79 134 -55 47 -115 63 -236 63 -90
0 -106 -3 -158 -29 -60 -29 -117 -91 -117 -128 0 -29 -17 -21 -23 11 -9 44
-60 96 -119 121 -76 33 -211 37 -293 10z m1449 -84 c44 -18 66 -52 66 -101 0
-91 -48 -115 -230 -115 l-130 0 0 115 0 115 130 0 c89 0 141 -4 164 -14z
m-1011 -165 c8 -37 57 -85 111 -109 23 -11 96 -32 161 -47 195 -45 240 -74
240 -156 0 -47 -39 -91 -101 -115 -61 -23 -193 -16 -251 14 -46 24 -88 72 -98
115 -7 26 -9 27 -76 27 -59 0 -69 -3 -69 -17 -1 -27 -32 -79 -60 -100 -46 -35
-107 -53 -184 -53 -129 0 -206 50 -206 134 1 77 49 108 235 151 184 43 257 85
272 157 7 36 19 36 26 -1z m1048 -167 c71 -41 86 -130 33 -193 -35 -42 -77
-51 -231 -51 l-133 0 0 136 0 136 148 -4 c124 -3 154 -7 183 -24z"/>
<path d="M2350 1630 c15 -10 58 -14 48 -5 -3 3 -18 8 -34 11 -22 3 -25 2 -14
-6z"/>
<path d="M2220 1590 c0 -16 4 -30 8 -30 5 0 7 14 4 30 -2 17 -6 30 -8 30 -2 0
-4 -13 -4 -30z"/>
<path d="M2221 1533 c-1 -18 4 -23 22 -22 15 1 17 3 5 6 -9 2 -19 12 -21 21
-3 12 -5 10 -6 -5z"/>
<path d="M2383 1533 c9 -2 25 -2 35 0 9 3 1 5 -18 5 -19 0 -27 -2 -17 -5z"/>
<path d="M2550 1527 c0 -8 7 -30 15 -48 l14 -34 1 33 0 32 92 0 c96 0 114 9
31 16 -26 2 -72 7 -100 10 -43 5 -53 4 -53 -9z"/>
<path d="M2275 1520 c-3 -5 -2 -10 4 -10 5 0 13 5 16 10 3 6 2 10 -4 10 -5 0
-13 -4 -16 -10z"/>
<path d="M2315 1520 c-3 -5 -1 -10 4 -10 6 0 11 5 11 10 0 6 -2 10 -4 10 -3 0
-8 -4 -11 -10z"/>
<path d="M2440 1510 c0 -11 5 -20 10 -20 6 0 10 9 10 20 0 11 -4 20 -10 20 -5
0 -10 -9 -10 -20z"/>
<path d="M2446 1434 c-11 -27 -6 -61 9 -74 18 -15 20 -1 3 35 -9 21 -9 28 1
34 8 5 9 11 3 15 -5 3 -13 -1 -16 -10z"/>
<path d="M2560 1378 c0 -16 -6 -28 -12 -28 -7 0 -5 -5 5 -11 23 -14 21 -28 -5
-39 -22 -8 -22 -9 5 -9 25 -1 27 2 27 42 0 23 -5 49 -10 57 -8 12 -10 9 -10
-12z"/>
<path d="M2710 1277 c-14 -6 -63 -28 -109 -49 -46 -21 -95 -41 -110 -45 -14
-3 -71 -26 -126 -50 -101 -45 -211 -84 -365 -130 -93 -27 -112 -31 -212 -37
-36 -2 -72 -7 -80 -12 -7 -5 -30 -10 -50 -11 -28 -2 -38 1 -38 12 0 8 5 15 12
15 8 0 9 3 2 10 -10 10 -132 -13 -171 -32 -13 -6 -26 -8 -30 -5 -3 4 -13 1
-22 -7 -18 -15 -149 -26 -196 -16 -16 3 -49 2 -72 -2 -24 -4 -69 -10 -100 -13
-32 -4 -76 -11 -98 -16 -22 -6 -73 -12 -113 -15 -41 -2 -81 -8 -90 -13 -9 -5
-42 -12 -72 -16 -230 -28 -371 -54 -539 -96 -68 -17 -119 -38 -61 -25 44 10
213 24 297 24 46 0 87 3 92 6 5 4 12 0 14 -6 4 -9 11 -6 24 9 12 15 33 24 63
28 25 3 77 10 115 15 39 6 156 13 260 15 105 3 208 9 230 14 22 6 87 15 145
21 280 29 460 54 510 71 30 11 66 19 80 19 14 0 31 5 37 11 9 9 57 25 103 33
8 2 26 8 40 14 14 6 90 35 170 65 80 30 163 64 185 75 22 11 69 33 105 47 79
33 200 93 200 100 0 6 1 6 -30 -8z"/>
<path d="M2240 1110 c-8 -5 -10 -10 -5 -10 6 0 17 5 25 10 8 5 11 10 5 10 -5
0 -17 -5 -25 -10z"/>
<path d="M372 634 c-24 -17 -29 -56 -9 -72 7 -6 37 -19 67 -29 42 -14 55 -23
55 -38 0 -41 -101 -46 -112 -5 -6 21 -18 26 -27 11 -3 -5 4 -20 15 -35 17 -22
29 -26 68 -26 57 0 84 23 79 67 -3 25 -10 30 -63 48 -47 16 -61 25 -63 43 -3
17 2 22 20 23 43 2 63 -2 74 -17 13 -16 34 -19 34 -5 0 19 -53 51 -84 51 -17
0 -42 -7 -54 -16z"/>
<path d="M980 636 c0 -9 7 -16 16 -16 9 0 14 5 12 12 -6 18 -28 21 -28 4z"/>
<path d="M1495 625 c-14 -13 -25 -28 -25 -33 0 -22 30 -44 74 -55 56 -15 77
-37 57 -61 -20 -24 -68 -20 -95 9 -28 30 -36 31 -36 6 0 -48 110 -71 150 -31
41 41 16 82 -59 99 -50 11 -66 23 -58 45 9 22 85 22 93 1 8 -19 34 -20 34 -1
0 22 -40 46 -78 46 -22 0 -41 -8 -57 -25z"/>
<path d="M2000 546 c0 -89 3 -106 15 -106 13 0 15 16 13 102 -2 70 -7 103 -15
106 -10 3 -13 -22 -13 -102z"/>
<path d="M2240 635 c0 -8 5 -15 10 -15 6 0 10 7 10 15 0 8 -4 15 -10 15 -5 0
-10 -7 -10 -15z"/>
<path d="M900 611 c0 -11 -6 -22 -12 -24 -10 -4 -10 -7 -1 -14 6 -5 13 -35 15
-68 3 -53 5 -60 26 -63 25 -4 30 13 7 22 -10 4 -15 20 -15 51 0 31 5 47 15 51
8 4 15 10 15 15 0 5 -7 9 -15 9 -8 0 -15 9 -15 20 0 11 -4 20 -10 20 -5 0 -10
-9 -10 -19z"/>
<path d="M568 573 c-24 -27 -30 -57 -18 -89 14 -36 26 -44 68 -44 43 0 72 30
72 75 0 22 -8 43 -20 55 -25 25 -81 27 -102 3z m80 -15 c7 -7 12 -26 12 -43 0
-36 -15 -55 -45 -55 -30 0 -45 19 -45 55 0 36 15 55 45 55 12 0 26 -5 33 -12z"/>
<path d="M720 534 c0 -82 9 -94 75 -92 l55 2 0 73 c0 58 -3 73 -15 73 -12 0
-15 -13 -15 -60 0 -55 -2 -60 -24 -66 -38 -9 -46 2 -46 67 0 46 -3 59 -15 59
-12 0 -15 -13 -15 -56z"/>
<path d="M980 516 c0 -62 3 -76 15 -76 13 0 15 12 13 72 -2 46 -7 73 -15 76
-10 3 -13 -16 -13 -72z"/>
<path d="M1060 570 c-12 -12 -20 -33 -20 -55 0 -46 29 -75 74 -75 36 0 80 30
56 38 -6 2 -17 -1 -23 -7 -24 -24 -77 -6 -77 26 0 9 17 13 59 13 57 0 58 1 53
25 -10 52 -84 73 -122 35z m86 -17 c17 -17 16 -18 -25 -21 -50 -4 -59 1 -41
23 17 20 44 19 66 -2z"/>
<path d="M1220 513 c0 -58 3 -73 15 -73 12 0 15 13 15 60 0 56 2 60 26 66 34
9 44 -7 44 -73 0 -42 3 -53 16 -53 14 0 16 9 11 66 -3 40 -10 70 -18 75 -8 4
-35 7 -61 6 l-48 -2 0 -72z"/>
<path d="M1686 571 c-10 -11 -18 -36 -18 -56 0 -49 25 -75 73 -75 28 0 41 5
49 20 8 15 8 20 -3 20 -7 0 -18 -5 -24 -11 -19 -19 -57 -6 -67 23 -20 57 38
106 74 63 14 -17 30 -20 30 -6 0 39 -84 55 -114 22z"/>
<path d="M1840 570 c-12 -12 -20 -33 -20 -55 0 -46 29 -75 74 -75 67 0 96 80
49 132 -22 24 -78 23 -103 -2z m92 -25 c24 -53 -26 -109 -68 -75 -17 15 -19
71 -2 88 21 21 57 14 70 -13z"/>
<path d="M2075 574 c-21 -22 -11 -30 19 -15 30 17 70 11 74 -11 3 -14 -4 -18
-30 -18 -60 0 -100 -49 -65 -79 7 -6 39 -10 71 -9 l58 2 -4 63 c-3 42 -9 68
-19 74 -23 14 -86 10 -104 -7z m95 -83 c0 -21 -19 -31 -56 -31 -17 0 -24 6
-24 18 0 26 9 32 47 32 26 0 33 -4 33 -19z"/>
<path d="M2240 515 c0 -43 4 -75 10 -75 6 0 10 32 10 75 0 43 -4 75 -10 75 -6
0 -10 -32 -10 -75z"/>
<path d="M2310 513 c0 -42 4 -73 10 -73 6 0 10 22 10 49 0 51 17 81 46 81 8 0
14 4 14 9 0 6 -18 9 -40 8 l-40 -1 0 -73z"/>
<path d="M2421 564 c-12 -15 -21 -37 -21 -49 0 -12 9 -34 21 -49 16 -20 29
-26 59 -26 21 0 43 6 50 15 16 19 5 34 -12 17 -19 -19 -66 -14 -78 7 -16 30
-14 31 50 31 63 0 68 5 49 43 -16 30 -28 37 -66 37 -22 0 -38 -8 -52 -26z m87
-6 c21 -21 13 -28 -33 -28 -25 0 -45 4 -45 8 0 15 24 32 45 32 12 0 26 -5 33
-12z"/>
<path d="M370 239 l0 -152 83 6 c101 6 116 12 132 50 12 30 3 87 -13 87 -4 0
-13 4 -21 9 -11 7 -9 13 8 30 40 40 22 94 -37 111 -20 5 -63 10 -94 10 l-58 0
0 -151z m164 105 c9 -8 16 -23 16 -32 0 -36 -18 -46 -84 -50 l-66 -4 0 51 0
51 59 0 c41 0 65 -5 75 -16z m12 -125 c8 -6 14 -24 14 -40 0 -40 -32 -59 -102
-59 l-58 0 0 61 0 62 66 -6 c37 -4 73 -12 80 -18z"/>
<path d="M1740 241 c0 -125 2 -151 15 -151 10 0 15 16 17 63 l3 62 75 6 c41 3
83 9 92 13 35 16 41 97 9 129 -16 16 -37 21 -115 25 l-96 5 0 -152z m182 102
c24 -21 23 -58 -2 -83 -17 -17 -31 -20 -83 -18 l-62 3 -3 44 c-2 24 -1 50 2
57 8 21 124 19 148 -3z"/>
<path d="M2040 240 c0 -127 2 -150 15 -150 13 0 15 23 15 150 0 127 -2 150
-15 150 -13 0 -15 -23 -15 -150z"/>
<path d="M1500 330 c0 -20 -5 -30 -15 -30 -8 0 -15 -4 -15 -10 0 -5 7 -10 15
-10 12 0 15 -15 15 -76 0 -91 10 -114 50 -114 36 0 39 11 8 25 -21 9 -23 18
-26 88 -3 72 -1 77 18 77 11 0 20 6 20 14 0 9 -7 12 -20 9 -17 -5 -20 0 -20
26 0 21 -5 31 -15 31 -10 0 -15 -10 -15 -30z"/>
<path d="M693 300 c-29 -12 -50 -50 -28 -50 8 0 24 9 35 20 11 11 31 20 45 20
27 0 65 -31 65 -54 0 -9 -17 -15 -54 -18 -69 -6 -106 -29 -106 -67 0 -15 8
-35 18 -44 23 -21 82 -22 108 -2 25 19 34 19 34 0 0 -8 7 -15 15 -15 12 0 15
16 15 85 0 78 -2 88 -25 110 -25 26 -78 33 -122 15z m117 -124 c0 -47 -59 -79
-106 -57 -55 25 -12 81 63 81 39 0 43 -2 43 -24z"/>
<path d="M931 284 c-36 -30 -48 -78 -31 -128 14 -43 48 -66 100 -66 39 0 80
26 80 50 0 16 -18 12 -40 -10 -26 -26 -64 -26 -90 0 -24 24 -28 106 -6 135 18
25 84 26 97 2 10 -18 39 -24 39 -8 0 5 -12 19 -26 30 -37 29 -85 27 -123 -5z"/>
<path d="M1270 282 c-26 -26 -30 -38 -30 -82 0 -44 4 -56 29 -81 41 -41 109
-42 149 -2 23 23 24 28 10 31 -9 2 -26 -6 -37 -17 -12 -12 -32 -21 -46 -21
-31 0 -75 41 -75 70 0 20 4 21 86 18 l86 -3 -6 34 c-8 48 -35 72 -89 78 -41 5
-49 2 -77 -25z m115 -17 c42 -41 33 -52 -45 -54 -58 -1 -70 1 -70 14 0 23 45
65 70 65 12 0 32 -11 45 -25z"/>
<path d="M2140 215 c0 -76 3 -95 18 -108 23 -21 76 -22 96 -2 8 8 17 15 20 15
3 0 6 -7 6 -15 0 -8 7 -15 15 -15 12 0 15 19 15 110 0 83 -3 109 -12 108 -9
-2 -15 -31 -18 -88 -5 -81 -6 -85 -34 -98 -21 -11 -34 -12 -52 -3 -23 10 -24
15 -24 99 0 72 -3 89 -15 89 -12 0 -15 -17 -15 -92z"/>
<path d="M2394 287 c-21 -19 -26 -29 -21 -50 6 -21 17 -29 65 -42 82 -24 97
-39 66 -69 -22 -22 -70 -20 -94 4 -24 24 -40 26 -40 6 0 -24 41 -46 86 -46 49
0 94 31 94 65 0 30 -16 42 -81 61 -30 9 -57 21 -61 27 -22 35 45 58 91 31 38
-22 54 -9 22 17 -33 27 -93 25 -127 -4z"/>
</g>
</svg>
